<svg width="25" height="25" viewBox="0 0 25 25" fill="none" xmlns="http://www.w3.org/2000/svg">
<path fill-rule="evenodd" clip-rule="evenodd" d="M5.45455 15.099L4.59784 18.4491L1.46658 18.5185C0.530793 16.7004 0 14.6202 0 12.4097C0 10.2721 0.496279 8.25636 1.37597 6.48145H1.37664L4.16434 7.0168L5.38552 9.91939C5.12993 10.6999 4.99062 11.5378 4.99062 12.4097C4.99072 13.3559 5.15435 14.2625 5.45455 15.099Z" fill="white"/>
<path fill-rule="evenodd" clip-rule="evenodd" d="M24.7808 10.1852C24.9249 10.9384 25 11.7164 25 12.5114C25 13.4029 24.9056 14.2726 24.7256 15.1114C24.1148 17.9658 22.5186 20.4583 20.3074 22.2222L20.3067 22.2215L16.7263 22.0402L16.2195 18.9011C17.6867 18.0473 18.8334 16.711 19.4374 15.1114H12.7273V10.1852H19.5353H24.7808V10.1852Z" fill="white"/>
<path fill-rule="evenodd" clip-rule="evenodd" d="M19.9995 22.1657L20.0001 22.1664C17.8807 23.9392 15.1883 25 12.2575 25C7.54758 25 3.45269 22.2605 1.36377 18.229L5.3717 14.8148C6.41614 17.7156 9.10508 19.7805 12.2575 19.7805C13.6125 19.7805 14.8819 19.3993 15.9711 18.7339L19.9995 22.1657Z" fill="white"/>
<path fill-rule="evenodd" clip-rule="evenodd" d="M20.4545 2.90627L16.4029 6.25439C15.2629 5.53512 13.9154 5.11961 12.4717 5.11961C9.21172 5.11961 6.44173 7.23792 5.43848 10.1852L1.36426 6.81832C3.4457 2.76756 7.6381 0 12.4717 0C15.5062 0 18.2885 1.09109 20.4545 2.90627Z" fill="white"/>
</svg>
