<svg width="71" height="24" viewBox="0 0 71 24" fill="none" xmlns="http://www.w3.org/2000/svg">
<path d="M0.93934 10.9393C0.353553 11.5251 0.353553 12.4749 0.93934 13.0607L10.4853 22.6066C11.0711 23.1924 12.0208 23.1924 12.6066 22.6066C13.1924 22.0208 13.1924 21.0711 12.6066 20.4853L4.12132 12L12.6066 3.51472C13.1924 2.92893 13.1924 1.97919 12.6066 1.3934C12.0208 0.807613 11.0711 0.807613 10.4853 1.3934L0.93934 10.9393ZM70.0607 13.0607C70.6464 12.4749 70.6464 11.5251 70.0607 10.9393L60.5147 1.3934C59.9289 0.807617 58.9792 0.807617 58.3934 1.3934C57.8076 1.97919 57.8076 2.92894 58.3934 3.51472L66.8787 12L58.3934 20.4853C57.8076 21.0711 57.8076 22.0208 58.3934 22.6066C58.9792 23.1924 59.9289 23.1924 60.5147 22.6066L70.0607 13.0607ZM2 13.5L69 13.5L69 10.5L2 10.5L2 13.5Z" fill="white"/>
</svg>
