<svg width="69" height="190" viewBox="0 0 69 190" fill="none" xmlns="http://www.w3.org/2000/svg">
<path d="M17.3569 142.593H18.0855H17.3569Z" fill="#0CCDE6" stroke="#0CCDE6" stroke-width="0.0762362"/>
<path d="M62.5289 145.514C62.1646 144.784 61.436 143.688 60.7074 143.323C59.9789 142.592 58.886 142.227 57.7931 141.862C59.6146 144.053 59.6146 148.801 59.6146 150.992C59.6146 152.818 59.2503 155.009 59.2503 157.2C58.886 161.218 57.7931 165.6 56.336 169.617C55.2431 172.904 53.7859 175.826 51.6002 178.382C45.7715 186.051 34.4786 187.877 27.1928 181.669C23.9141 179.113 20.9998 175.095 19.1784 169.252C18.0855 165.235 16.264 161.583 14.4426 157.931C13.714 156.105 12.9854 154.279 12.2569 152.088C11.8926 150.627 11.164 148.07 11.5283 146.244C11.8926 145.879 11.8926 144.784 12.2569 144.053C11.164 144.418 10.4354 144.784 9.70683 145.879C8.61396 146.61 7.88538 148.436 7.88538 149.896C8.97825 156.47 11.8926 159.392 16.264 171.078C20.2712 183.495 29.0142 187.877 34.4786 189.338C38.1215 190.069 42.1286 189.703 45.4073 188.243C62.1646 181.304 62.8932 159.392 62.5289 145.514Z" stroke="#0CCDE6" stroke-width="0.392786"/>
<path d="M17.3569 142.593H18.0855C18.0855 142.227 17.7212 141.862 17.7212 141.862C16.6283 141.132 13.714 142.958 12.6211 143.688C12.6211 143.688 12.6211 143.688 12.2568 144.053C13.3497 143.688 14.4426 143.323 15.5354 142.958C16.264 142.958 16.6283 142.958 17.3569 142.593Z" fill="#0CCDE6" stroke="#0CCDE6" stroke-width="0.0762362"/>
<path d="M52.3288 142.227C52.3288 142.227 52.3288 142.227 51.9645 142.227C52.3288 142.227 52.3288 142.227 52.3288 142.227Z" fill="#0CCDE6" stroke="#0CCDE6" stroke-width="0.0762362"/>
<path d="M57.7932 141.862C57.0646 141.132 56.336 140.767 54.8789 141.132C54.8789 141.132 53.786 140.401 53.0574 140.401L52.6931 140.767C52.6931 140.767 52.6931 140.767 52.6931 141.132V140.767C53.4217 141.132 53.786 141.132 54.1503 141.132C55.6074 141.497 56.7003 141.497 57.7932 141.862Z" fill="#0CCDE6" stroke="#0CCDE6" stroke-width="0.0762362"/>
<path d="M63.9861 30.1107C61.0718 20.6155 56.336 9.29426 47.2287 4.18145C38.8501 -0.56616 28.2856 0.164241 20.6355 5.27705C13.714 10.3899 10.0711 18.0591 7.15681 25.7283C4.24249 33.0323 2.78533 41.0667 1.69246 48.736C0.235295 64.0744 0.963875 80.1432 4.97107 94.7513C4.97107 95.1165 4.97107 95.4817 4.97107 95.4817C5.33536 96.2121 5.33536 96.5773 5.33536 97.3077C8.24968 109.359 7.88539 125.428 8.61397 132.732C8.97826 139.306 7.15681 142.227 7.5211 148.071C7.88539 148.436 7.88539 149.166 7.88539 149.897C7.88539 148.436 8.61397 146.61 9.70684 145.879C10.4354 144.784 11.164 144.419 12.2569 144.053C13.3497 143.688 14.4426 143.323 15.5355 142.958C16.2641 142.958 16.9926 142.593 17.7212 142.593C17.7212 142.958 17.3569 143.323 17.3569 143.688C17.7212 144.053 17.7212 144.784 18.0855 145.149C18.4498 145.514 18.4498 145.514 18.8141 145.514C19.1784 145.514 19.1784 145.879 19.5427 145.879C20.6355 145.879 21.3641 145.879 22.457 145.514C23.1856 145.514 23.9142 145.149 24.6427 144.784C27.9213 144.053 31.2 143.688 34.4786 143.323C35.9357 142.958 37.7572 142.958 39.2143 142.958C39.9429 142.958 40.6715 142.958 41.7644 142.958C41.7644 142.958 42.493 142.958 42.493 143.323H43.2215H43.9501C45.7716 144.053 47.593 144.053 49.0502 143.688C50.143 143.688 50.8716 143.323 51.6002 142.593C51.9645 142.593 52.3288 142.227 52.6931 141.862C52.6931 141.497 52.6931 141.132 52.6931 140.767C53.4217 141.132 53.786 141.132 54.1502 141.132C56.7003 141.497 58.886 141.862 60.7075 143.323C61.436 143.688 62.1646 144.784 62.5289 145.514C62.5289 145.149 62.5289 144.784 62.5289 144.053C62.1646 142.227 62.1646 140.767 62.1646 139.306C61.8003 126.159 59.9789 102.055 62.1646 91.8296C62.5289 89.6384 62.8932 87.4472 63.6218 85.256C63.6218 84.8908 63.6218 84.5256 63.6218 84.1604C65.4432 75.7608 67.2647 67.3612 67.629 62.2484C68.3576 51.2924 66.9004 40.3363 63.9861 30.1107Z" stroke="#0CCDE6" stroke-width="0.392786" stroke-linecap="round" stroke-linejoin="round"/>
<path d="M52.6931 140.767C52.6931 140.767 52.6931 140.767 52.6931 141.132V140.767Z" fill="#0CCDE6" stroke="#0CCDE6" stroke-width="0.0762362"/>
<path d="M63.6218 85.256C62.5289 70.2827 60.7074 54.5791 57.7931 39.9711C55.9717 31.9366 53.4216 23.9022 48.6859 16.9634C46.5001 13.6766 43.2215 11.1202 39.5786 10.0246C37.7572 9.6594 35.5714 9.2942 33.75 9.6594C31.9285 9.6594 29.7428 10.3898 27.9213 11.1202C26.0999 11.8506 24.6427 12.9462 22.8213 14.0418C21.3641 15.5026 19.9069 16.5982 18.8141 18.4242C16.264 21.711 14.0783 25.363 12.6211 29.015C9.70681 36.6843 7.88536 45.0839 6.79249 53.1183C5.69962 61.5179 5.33533 69.9175 5.33533 78.3172C5.33533 84.8908 5.33533 91.4644 5.69962 98.038C5.33533 97.6728 5.33533 97.3076 4.97104 96.9424C4.97104 94.7512 4.60675 92.9252 4.60675 91.0992L4.24246 78.6824C3.87817 69.9175 3.87817 61.5179 4.60675 53.1183C5.69962 44.7187 7.15678 36.3191 10.4354 27.9194C11.8926 23.9022 14.0783 20.2502 16.6283 16.5982C18.0855 15.1374 19.5426 13.3114 21.3641 11.8506C22.8213 10.3898 25.007 9.2942 26.8284 8.5638C29.0142 7.8334 31.1999 7.10299 33.3857 6.73779C35.9357 6.73779 38.1214 7.10299 40.3072 7.46819C44.6787 8.5638 48.3216 11.8506 50.8716 15.5026C55.6074 22.8066 58.1574 31.2062 59.9789 39.6059C61.436 48.0055 62.5289 56.4051 62.8932 64.8047C63.2575 71.0131 63.6218 77.952 63.6218 84.5256C63.6218 84.5256 63.6218 84.8908 63.6218 85.256Z" fill="#0CCDE6" stroke="#0CCDE6" stroke-width="0.0762362"/>
<path d="M25.007 133.097C24.6427 135.288 23.5499 137.845 22.0927 139.671C20.9998 140.767 19.5427 141.862 18.0855 142.227C18.0855 142.227 17.7212 142.227 17.7212 142.593C16.9926 142.593 16.2641 142.958 15.5355 142.958C14.4426 143.323 13.3497 143.688 12.2569 144.053C11.164 144.419 10.4354 144.784 9.70684 145.879C8.61397 146.61 7.5211 148.436 7.5211 149.897C7.5211 149.166 7.15681 148.801 7.15681 148.071C7.5211 147.34 8.24968 145.879 8.97826 145.149C10.4354 143.323 12.9855 142.593 15.1712 141.862C17.3569 141.132 19.1784 140.036 20.6355 138.575C21.7284 136.749 22.457 134.923 22.8213 132.732C23.1856 130.541 23.5499 128.35 23.5499 125.793C23.5499 124.698 23.5499 123.237 23.5499 121.776C23.5499 121.046 23.5499 119.95 23.5499 119.22C23.5499 118.124 23.5499 117.028 23.5499 115.933C23.5499 114.837 23.5499 113.742 23.5499 112.646C23.5499 111.55 23.5499 110.455 23.5499 108.994C23.5499 107.898 23.5499 106.438 23.5499 105.342V104.977L23.9142 100.594V97.3076L24.2784 94.386V91.4644V90.3688L24.6427 84.5256V81.2388L25.007 77.5868C25.007 77.2216 25.007 76.4912 25.007 76.126C25.007 75.3956 25.007 75.0304 25.007 74.3C25.007 73.2044 24.6427 72.474 23.9142 71.7436C23.1856 70.2828 20.6355 69.5524 18.4498 69.5524C16.2641 69.5524 14.0783 69.5524 11.8926 69.9176C10.4354 69.9176 9.34255 70.2828 8.24968 70.2828L5.69965 71.0132H4.97107C4.97107 71.0132 5.33536 71.0132 5.69965 71.0132C9.70684 69.5524 14.0783 68.4568 18.4498 68.0916C19.5427 68.0916 20.9998 68.0916 22.0927 68.4568C23.1856 68.822 24.6427 69.5524 25.3713 70.648C26.4642 71.7436 26.8285 72.8392 26.8285 74.3C26.8285 74.6652 27.1928 75.3956 27.1928 76.126C27.1928 76.4912 27.1928 77.2216 27.1928 77.5868C27.1928 79.0476 27.1928 80.1432 27.1928 81.604C27.1928 82.6996 27.1928 83.7952 26.8285 84.8908C26.8285 85.9864 26.8285 87.4472 26.8285 88.5428C26.8285 90.0036 26.8285 91.0992 26.8285 92.56C26.8285 94.386 26.8285 95.8468 26.4642 97.6728C26.4642 98.7684 26.4642 99.864 26.4642 100.96C26.4642 101.69 26.4642 102.42 26.4642 103.151C26.4642 103.881 26.4642 104.612 26.4642 105.342C26.4642 106.072 26.4642 106.438 26.4642 107.168C26.0999 108.994 26.0999 111.185 26.0999 113.011C26.0999 114.472 26.0999 115.568 26.0999 116.663C26.0999 117.394 26.0999 118.124 26.0999 119.22C26.0999 119.585 26.0999 119.95 26.0999 120.315C26.0999 121.411 26.0999 122.872 26.0999 124.332C25.7356 127.254 25.7356 130.176 25.007 133.097Z" fill="#0CCDE6" stroke="#0CCDE6" stroke-width="0.0762362"/>
<path d="M62.5289 145.879V145.514C62.1646 144.784 61.436 143.688 60.7074 143.323C58.886 141.862 56.7002 141.497 54.1502 141.132C53.7859 141.132 53.4216 141.132 52.693 140.767C51.9645 140.767 51.2359 140.401 50.5073 140.401C49.4144 139.671 48.3216 138.941 47.593 137.845C45.7715 136.019 44.6787 133.828 43.9501 131.271C43.2215 129.08 42.8572 126.524 42.8572 124.333L42.4929 122.872L42.1286 118.855V117.029C41.7643 116.663 41.7643 116.298 41.7643 115.568C41.7643 114.472 41.4 113.377 41.4 112.281C41.0358 110.09 41.0358 107.899 40.6715 105.342C40.3072 104.612 40.3072 103.881 40.3072 103.151C40.3072 102.786 40.3072 102.055 39.9429 101.69C39.9429 100.96 39.9429 100.229 39.9429 99.499C39.5786 98.4034 39.5786 97.3078 39.5786 96.2122C39.2143 93.2906 38.85 90.7341 38.4857 88.1777C38.4857 87.8125 38.1214 87.0821 38.1214 86.7169C38.1214 85.9865 38.1214 85.2561 38.1214 84.5257C38.1214 84.1605 37.7571 83.7953 37.7571 83.0649C37.3929 80.5085 37.3929 77.5869 37.0286 74.6653C37.0286 73.2045 37.0286 72.1089 37.7571 70.6481C38.1214 69.5525 39.5786 68.4569 40.6715 67.7265C41.7643 67.3613 43.2215 66.9961 44.3144 66.9961C45.4072 66.9961 46.8644 66.9961 47.9573 66.9961C50.5073 66.9961 52.693 67.3613 55.2431 67.7265C57.4288 67.7265 59.6145 68.0917 61.8003 68.4569C62.1646 68.4569 62.1646 68.4569 62.1646 68.4569H54.8788C52.693 68.0917 50.143 68.0917 47.9573 68.0917C45.7715 68.4569 43.2215 68.4569 41.4 69.5525C40.6715 69.9177 39.9429 70.6481 39.5786 71.3785C39.2143 72.4741 39.2143 73.5697 39.2143 74.6653C39.5786 77.2217 39.9429 79.7781 40.3072 82.3345C40.3072 83.4301 40.6715 84.5257 40.6715 85.6213C40.6715 86.7169 41.0358 87.4473 41.0358 88.5429V89.2733L42.1286 95.1166L42.4929 98.4034L42.8572 102.786C42.8572 102.786 42.8572 102.786 42.8572 103.151C43.2215 104.247 43.2215 105.707 43.5858 106.803C43.5858 108.629 43.9501 110.09 43.9501 111.551C43.9501 112.646 44.3144 113.742 44.3144 114.837C44.3144 115.568 44.3144 116.298 44.6787 117.029V120.315L45.0429 123.967V124.333C45.0429 125.428 45.4072 126.524 45.4072 127.254C45.7715 128.715 45.7715 129.811 46.1358 130.906C46.5001 133.097 47.593 135.289 48.6858 136.749C49.4144 137.48 50.5073 138.21 51.2359 138.941C52.3287 139.306 53.4216 139.671 54.5145 140.036C56.7002 140.401 59.2503 141.132 61.0717 142.593C61.8003 143.323 62.1646 143.688 62.5289 144.053C62.5289 144.419 62.5289 144.419 62.8932 144.784C62.5289 145.149 62.5289 145.514 62.5289 145.879Z" fill="#0CCDE6" stroke="#0CCDE6" stroke-width="0.0762362"/>
<path d="M19.5426 127.984C19.5426 125.793 18.0855 123.967 16.6283 123.967C14.8069 123.967 13.714 125.793 13.714 128.35C13.714 130.541 15.1712 132.002 16.9926 132.002C18.4498 132.002 19.9069 130.176 19.5426 127.984Z" fill="#0CCDE6" stroke="#0CCDE6" stroke-width="0.0762362"/>
<path d="M18.8141 112.646C18.8141 110.455 17.357 108.629 15.8998 108.629C14.0783 108.629 12.9855 110.455 12.9855 112.646C13.3498 115.203 14.4426 116.663 16.2641 116.663C17.7212 116.663 19.1784 114.837 18.8141 112.646Z" fill="#0CCDE6" stroke="#0CCDE6" stroke-width="0.0762362"/>
<path d="M19.1783 96.9425C18.8141 94.7513 17.7212 93.2905 15.8997 93.2905C14.4426 93.2905 12.9854 95.1165 13.3497 97.3077C13.3497 99.4989 14.8069 101.325 16.264 101.325C18.0855 101.325 19.1783 99.4989 19.1783 96.9425Z" fill="#0CCDE6" stroke="#0CCDE6" stroke-width="0.0762362"/>
<path d="M19.1784 82.6996C19.1784 80.5084 17.7212 78.6824 16.2641 78.6824C14.4426 79.0476 13.3497 80.8736 13.3497 83.0648C13.3497 85.256 14.8069 87.082 16.6283 86.7168C18.0855 86.7168 19.1784 84.8908 19.1784 82.6996Z" fill="#0CCDE6" stroke="#0CCDE6" stroke-width="0.0762362"/>
<path d="M54.8788 125.793C54.8788 123.602 53.4217 121.776 51.9645 121.776C50.143 121.776 49.0502 123.602 49.0502 125.793C49.0502 128.35 50.5073 129.811 52.3288 129.811C53.7859 129.811 54.8788 127.985 54.8788 125.793Z" fill="#0CCDE6" stroke="#0CCDE6" stroke-width="0.0762362"/>
<path d="M54.1502 110.455C54.1502 108.264 52.693 106.438 51.2359 106.438C49.4144 106.438 48.3215 108.264 48.3215 110.455C48.3215 113.011 49.7787 114.472 51.6001 114.472C53.0573 114.472 54.1502 112.646 54.1502 110.455Z" fill="#0CCDE6" stroke="#0CCDE6" stroke-width="0.0762362"/>
<path d="M54.5145 94.7511C54.1502 92.5599 52.693 91.0991 51.2359 91.0991C49.7787 91.0991 48.3215 92.9251 48.3215 95.1163C48.6858 97.3075 50.143 99.1335 51.6001 99.1335C53.0573 99.1335 54.5145 97.3075 54.5145 94.7511Z" fill="#0CCDE6" stroke="#0CCDE6" stroke-width="0.0762362"/>
<path d="M54.5146 80.5084C54.5146 78.3172 53.0574 76.4912 51.2359 76.4912C49.7788 76.8564 48.6859 78.6824 48.6859 80.8736C48.6859 83.0648 50.1431 84.8908 51.6002 84.5256C53.4217 84.5256 54.5146 82.6996 54.5146 80.5084Z" fill="#0CCDE6" stroke="#0CCDE6" stroke-width="0.0762362"/>
<path d="M51.9645 109.359C51.9645 109.359 51.9645 109.359 51.6002 109.359C30.1071 114.107 15.5355 127.984 14.8069 128.715C14.4426 129.445 14.4426 130.541 14.8069 130.906C15.5355 131.636 16.6284 131.636 17.3569 130.906C17.3569 130.906 31.9285 117.028 52.3288 112.646C53.4217 112.281 53.786 111.55 53.786 110.455C53.4217 109.724 52.6931 109.359 51.9645 109.359Z" fill="#0CCDE6" stroke="#0CCDE6" stroke-width="0.0762362"/>
<path d="M16.264 111.551C15.5355 111.916 14.8069 112.281 14.8069 113.377C14.8069 114.107 15.5355 114.837 16.264 114.837C16.6283 114.837 34.8428 115.933 51.6002 128.715C52.3288 129.08 53.4216 129.08 53.7859 128.35C54.1502 127.619 54.1502 126.524 53.4216 126.159C35.9357 112.646 17.3569 111.916 16.6283 111.551H16.264Z" fill="#0CCDE6" stroke="#0CCDE6" stroke-width="0.0762362"/>
<path d="M51.2359 92.5601C51.2359 92.5601 51.2359 92.5601 50.8716 92.5601C29.3785 96.9425 15.5355 111.916 14.8069 112.281C14.4426 113.011 14.4426 114.107 15.1712 114.472C15.5355 115.203 16.6284 115.203 17.3569 114.472C17.3569 114.472 31.2 100.229 51.6002 95.4817C52.6931 95.4817 53.0574 94.7513 53.0574 93.6557C52.6931 92.9253 51.9645 92.5601 51.2359 92.5601Z" fill="#0CCDE6" stroke="#0CCDE6" stroke-width="0.0762362"/>
<path d="M16.6283 96.5774C15.5355 96.5774 14.8069 97.3078 14.8069 98.4034C14.8069 99.1338 15.5355 99.8642 16.6283 99.8642C16.6283 99.8642 34.8428 99.499 51.6002 112.281C52.3288 112.646 53.4216 112.646 53.7859 111.916C54.5145 111.185 54.1502 110.09 53.4216 109.725C35.9357 96.2122 17.3569 96.5774 16.6283 96.5774Z" fill="#0CCDE6" stroke="#0CCDE6" stroke-width="0.0762362"/>
<path d="M51.6002 79.0476H51.2359C29.7428 83.7952 15.8998 96.5772 15.1712 96.9424C14.4426 97.6728 14.4426 98.7684 15.1712 99.4988C15.5355 99.8641 16.6284 100.229 17.3569 99.4988C17.3569 99.4988 31.2 86.7168 51.9645 82.3344C52.6931 81.9692 53.4217 81.2388 53.0574 80.1432C53.0574 79.4128 52.3288 79.0476 51.6002 79.0476Z" fill="#0CCDE6" stroke="#0CCDE6" stroke-width="0.0762362"/>
<path d="M16.9927 80.8736C16.2641 80.8736 15.8998 80.8736 15.8998 80.8736C15.1712 80.8736 14.4426 81.604 14.4426 82.6996C14.4426 83.43 15.5355 84.1604 16.2641 84.1604C16.6284 84.1604 34.1143 82.3344 50.5074 95.1165C51.2359 95.8469 52.3288 95.4817 53.0574 94.7513C53.4217 94.0209 53.4217 93.2905 52.6931 92.5601C37.0286 80.8736 21.3641 80.5084 16.9927 80.8736Z" fill="#0CCDE6" stroke="#0CCDE6" stroke-width="0.0762362"/>
</svg>
