<svg width="29" height="25" viewBox="0 0 29 25" fill="none" xmlns="http://www.w3.org/2000/svg">
<path d="M27.1672 18.4154C26.5107 17.752 25.2162 16.9103 23.8948 15.5664L23.1239 17.2195C22.9928 17.5018 22.687 17.651 22.4429 17.5531C22.4176 17.5432 22.3947 17.5306 22.3727 17.5163C22.1817 17.3924 22.1191 17.1194 22.2372 16.8667L23.0381 15.1485C23.1258 14.9605 23.1035 14.6998 22.9917 14.5631C22.929 14.4854 22.8663 14.4068 22.8034 14.3266C22.694 14.1871 22.5362 14.2239 22.4489 14.4114L22.0446 15.2779C21.9135 15.56 21.608 15.7088 21.3633 15.612C21.3382 15.6016 21.3147 15.59 21.2927 15.5757C21.1021 15.4521 21.0396 15.1791 21.1576 14.9255L21.8232 13.4978C21.9112 13.3093 21.905 13.0342 21.8134 12.8786C21.7486 12.7703 21.6854 12.6594 21.6232 12.5461C21.5356 12.388 21.3974 12.4098 21.3101 12.5981L20.966 13.336C20.8345 13.6187 20.5292 13.7682 20.2847 13.6701C20.2597 13.6597 20.2361 13.6488 20.2142 13.6346C20.0236 13.511 19.9617 13.2369 20.0794 12.9839L20.7877 11.465C20.8758 11.2773 20.8907 10.9867 20.8247 10.815C20.7633 10.6506 20.7033 10.482 20.6458 10.3106C20.5866 10.1352 20.4711 10.1427 20.3834 10.3306L19.8871 11.3946C19.756 11.6768 19.451 11.8258 19.2065 11.7277C19.1808 11.7183 19.1575 11.7062 19.136 11.6922C18.945 11.5683 18.8827 11.2948 19.0012 11.0415L20.2321 8.40208C20.2231 8.24251 20.2185 8.0894 20.2204 7.96025C20.2337 6.86723 20.1732 4.8176 19.5861 3.95295C18.9711 3.0484 17.8213 3.33586 17.238 3.91572C16.9454 4.20758 16.7079 4.85358 16.5832 5.24485C16.5058 5.48758 16.4476 5.76968 16.4635 6.04382C16.4856 6.43192 16.3781 6.75789 16.0083 6.83793C15.1412 7.02894 13.5694 7.28464 12.1268 7.05209C9.28303 6.59353 9.76771 4.99812 9.76771 4.99812C9.76771 4.99812 10.504 2.79136 10.162 1.60263C10.0591 1.24299 9.61646 0.850985 9.27975 0.746284C9.15969 0.709942 9.03749 0.694841 8.91493 0.689646C8.30019 2.02002 7.16135 5.45431 9.26239 9.55539C11.9862 14.877 20.3189 20.9907 21.8941 22.115C22.0365 22.2169 22.0189 22.2478 21.8558 22.1835C20.6614 21.7105 16.0978 19.7778 12.4112 16.5409C7.88123 12.5605 4.38821 7.85465 6.3189 2.23645C6.2254 2.32592 6.13755 2.40952 6.05954 2.47993C5.39106 3.08464 4.89508 3.45444 3.82705 5.0191C3.59278 5.36336 3.12997 5.81298 2.81448 6.07323C2.43714 6.3836 1.93134 6.87605 1.45136 7.57832C0.973446 8.27752 0.580297 8.88456 0.311276 9.30968C0.0886075 9.66146 -0.035572 10.2572 0.101896 10.5984C0.199353 10.843 0.343767 11.1217 0.55396 11.3725C0.781078 11.6444 1.11969 12.0864 1.33055 12.3739C1.4215 12.4984 1.5369 12.6287 1.68085 12.7497C1.9493 12.9747 2.32071 13.1494 2.44331 13.2413C2.56618 13.3327 2.61832 13.4794 2.55977 13.5696C2.50123 13.6599 2.60714 13.8321 2.79647 13.9549C2.9858 14.0777 3.25515 14.1175 3.39742 14.0452C3.54011 13.9722 3.73508 13.9647 3.83271 14.0281C3.93039 14.0914 3.94848 14.2379 3.87327 14.3538C3.79778 14.4702 3.87981 14.6575 4.05708 14.7725C4.23436 14.8875 4.49199 14.9125 4.63345 14.8272C4.77479 14.744 4.96428 14.7233 5.05593 14.7827C5.14713 14.8419 5.21054 15.0259 5.19748 15.1931C5.18458 15.3609 5.30263 15.5804 5.46141 15.6834C5.62019 15.7863 5.85989 15.8069 5.99608 15.7307C6.13274 15.6538 6.276 15.7467 6.31621 15.9383C6.35689 16.1301 6.56328 16.398 6.77668 16.5364C6.99009 16.6749 7.23795 16.7271 7.32973 16.6525C7.4214 16.5771 7.58527 16.5742 7.69541 16.6457C7.8051 16.7168 7.89455 16.8833 7.89376 17.0184C7.89364 17.1524 8.08364 17.325 8.31751 17.4055C8.55219 17.4847 8.85577 17.4718 8.99562 17.3768C9.13554 17.2817 9.26521 17.3315 9.28498 17.4886C9.30316 17.6462 9.46306 17.9095 9.6419 18.0758C9.81931 18.2433 10.0889 18.3592 10.2435 18.3347C10.3977 18.3109 10.5903 18.3608 10.6739 18.4448C10.7569 18.5307 10.7676 18.6877 10.6967 18.797C10.6255 18.9068 10.737 19.1043 10.9443 19.2388C11.1521 19.3736 11.4176 19.4628 11.5388 19.4371C11.6591 19.4118 11.8294 19.4631 11.9187 19.5524C12.0085 19.6412 12.0429 19.7729 11.9957 19.8457C11.9485 19.9184 12.0142 20.0442 12.1424 20.1273C12.2711 20.2107 12.4897 20.2855 12.6309 20.2949C12.7726 20.3036 12.9392 20.3615 13.0027 20.4238C13.067 20.4859 13.0765 20.6012 13.0242 20.6818C12.9724 20.7617 13.168 20.9804 13.461 21.1704L13.5053 21.1992C13.7987 21.3895 14.0973 21.4484 14.1725 21.3324C14.248 21.216 14.3935 21.1764 14.4968 21.2433C14.6005 21.3106 14.6233 21.4602 14.5481 21.5761C14.4726 21.6926 14.6192 21.9216 14.8756 22.0879C15.132 22.2542 15.4708 22.3822 15.6328 22.3737C15.7947 22.3643 15.9583 22.4704 15.9976 22.6103C16.037 22.7494 16.3023 23.0133 16.5892 23.1994C16.8762 23.3855 17.212 23.4861 17.3389 23.4242C17.466 23.3621 17.6726 23.3367 17.7998 23.3667C17.9264 23.3986 18.0165 23.5312 17.9992 23.6644C17.9821 23.7982 18.2364 24.0025 18.5676 24.1234L18.6669 24.1587C18.998 24.2779 19.3693 24.282 19.4961 24.1667C19.6222 24.0525 19.787 23.9831 19.8634 24.0122C19.9399 24.0414 20.0039 24.1923 20.0066 24.3485C20.0088 24.5052 20.2041 24.682 20.4418 24.7423C20.6795 24.8038 21.0044 24.7042 21.1671 24.5205C21.3297 24.3366 21.5924 24.2134 21.7532 24.2463C21.9147 24.2781 21.9685 24.4224 21.874 24.5679C21.7795 24.7137 21.9907 24.8753 22.3442 24.9305C22.7016 24.9845 23.0654 24.9109 23.1599 24.7651C23.2543 24.6195 23.4282 24.5137 23.5477 24.53C23.6677 24.5458 23.7751 24.6403 23.7879 24.7412C23.8 24.8422 23.9937 24.9017 24.221 24.8727C24.4475 24.8447 24.7128 24.7392 24.8125 24.6391C24.9125 24.5386 25.2938 24.4456 25.6628 24.3469C26.425 24.1424 27.6501 23.5636 28.3093 21.9101C29.3113 19.3957 28.5611 19.8258 27.1672 18.4154Z" fill="#A1A1A1"/>
</svg>
